<?xml version="1.0" standalone="no"?>
<!DOCTYPE svg PUBLIC "-//W3C//DTD SVG 20010904//EN"
 "http://www.w3.org/TR/2001/REC-SVG-20010904/DTD/svg10.dtd">
<svg version="1.0" xmlns="http://www.w3.org/2000/svg"
 width="512.000000pt" height="512.000000pt" viewBox="0 0 512.000000 512.000000"
 preserveAspectRatio="xMidYMid meet">

<g transform="translate(0.000000,512.000000) scale(0.100000,-0.100000)"
fill="#000000" stroke="none">
<path d="M2321 5099 c-326 -29 -646 -123 -949 -280 -382 -196 -712 -493 -956
-859 -72 -107 -207 -361 -235 -440 -9 -27 68 44 356 330 262 261 381 372 414
388 25 12 169 54 320 93 l274 72 65 62 c96 93 232 215 257 232 34 23 65 9 95
-42 l28 -45 560 0 560 0 24 38 c34 55 52 67 82 56 13 -5 96 -76 185 -158 l161
-148 216 -55 c296 -74 350 -90 402 -126 25 -16 204 -188 398 -381 194 -193
350 -342 346 -331 -19 55 -137 291 -188 375 -138 226 -355 475 -561 645 -518
426 -1187 633 -1854 574z"/>
<path d="M2495 3286 c-69 -30 -108 -112 -86 -179 34 -103 155 -137 236 -66 87
76 55 217 -56 249 -44 13 -57 12 -94 -4z"/>
<path d="M51 3104 c-41 -181 -46 -236 -46 -554 0 -352 8 -423 80 -685 88 -319
261 -658 468 -915 69 -86 249 -272 320 -332 l47 -40 0 1108 0 1109 -108 -108
c-95 -94 -111 -107 -142 -107 -32 0 -56 22 -321 286 l-287 286 -11 -48z"/>
<path d="M4749 2865 c-263 -263 -287 -285 -319 -285 -31 0 -47 12 -142 107
l-108 108 0 -1109 0 -1108 48 40 c158 132 386 402 505 597 275 452 406 988
369 1503 -10 139 -52 415 -64 427 -2 2 -132 -124 -289 -280z"/>
<path d="M2469 2247 c-77 -51 -89 -154 -26 -221 79 -84 217 -48 247 64 34 127
-112 230 -221 157z"/>
<path d="M2480 1232 c-73 -38 -100 -148 -52 -211 85 -115 266 -61 266 78 0
114 -115 185 -214 133z"/>
</g>
</svg>
