<?xml version="1.0" standalone="no"?>
<!DOCTYPE svg PUBLIC "-//W3C//DTD SVG 20010904//EN"
 "http://www.w3.org/TR/2001/REC-SVG-20010904/DTD/svg10.dtd">
<svg version="1.0" xmlns="http://www.w3.org/2000/svg"
 width="512.000000pt" height="512.000000pt" viewBox="0 0 512.000000 512.000000"
 preserveAspectRatio="xMidYMid meet">
<metadata>
Created by potrace 1.11, written by Peter Selinger 2001-2013
</metadata>
<g transform="translate(0.000000,512.000000) scale(0.100000,-0.100000)"
fill="#000000" stroke="none">
<path d="M2315 5100 c-695 -74 -1295 -390 -1733 -915 -149 -179 -306 -436
-393 -645 -16 -39 -47 -81 -106 -141 -80 -83 -83 -88 -83 -132 0 -37 6 -53 31
-81 l30 -35 -20 -98 c-11 -54 -23 -114 -27 -133 -4 -19 -8 -170 -10 -335 -3
-257 0 -317 16 -421 74 -472 267 -897 565 -1251 338 -400 733 -665 1215 -812
283 -87 418 -104 802 -98 333 4 417 15 663 87 828 241 1479 886 1735 1718 32
106 74 298 85 387 3 28 9 82 14 120 9 74 7 428 -3 505 -3 25 -8 68 -12 95 -3
28 -7 52 -9 55 -2 3 -6 27 -9 54 -4 27 -9 53 -11 56 -2 4 -7 21 -10 39 -5 27
0 39 25 67 62 71 53 105 -60 218 -54 54 -84 94 -96 125 -64 174 -213 426 -364
616 -162 205 -365 391 -586 537 -319 212 -730 367 -1069 404 -27 3 -57 8 -65
11 -24 8 -438 11 -515 3z"/>
</g>
</svg>
